<svg version="1.1" id="Layer_1" xmlns="http://www.w3.org/2000/svg" xmlns:xlink="http://www.w3.org/1999/xlink" x="0px" y="0px"
	 width="100%" viewBox="0 0 1000 1000" enable-background="new 0 0 1000 1000" xml:space="preserve">
<path fill="#2C6DC5" opacity="1.000000" stroke="none" 
	d="
M658.000000,1001.000000 
	C438.666656,1001.000000 219.833328,1001.000000 1.000000,1001.000000 
	C1.000000,667.666687 1.000000,334.333344 1.000000,1.000000 
	C334.333344,1.000000 667.666687,1.000000 1001.000000,1.000000 
	C1001.000000,334.333344 1001.000000,667.666687 1001.000000,1001.000000 
	C886.833313,1001.000000 772.666687,1001.000000 658.000000,1001.000000 
M321.448181,527.946838 
	C286.946960,562.486511 252.393738,596.974792 218.047150,631.667542 
	C215.416702,634.324463 213.429352,638.225159 212.528458,641.888367 
	C206.841721,665.012268 201.649155,688.257019 196.097427,711.414856 
	C187.944809,745.421936 179.619888,779.387634 171.385208,813.375061 
	C168.467422,825.417725 176.154190,832.893311 188.275787,830.016907 
	C203.310913,826.449158 218.384216,823.041931 233.446747,819.590271 
	C252.378021,815.252014 271.336945,811.031921 290.243591,806.589172 
	C309.477539,802.069519 328.697144,797.478516 347.852081,792.637939 
	C355.618958,790.675232 364.071228,790.398132 370.083679,783.614929 
	C374.774109,778.323120 380.039246,773.538635 385.077972,768.558044 
	C404.155914,749.700378 423.288605,730.897827 442.322357,711.995667 
	C486.296906,668.325073 530.409973,624.791748 574.131348,580.868774 
	C646.046265,508.622437 717.733521,436.149261 789.405518,363.661713 
	C797.806580,355.165009 806.041138,346.394501 813.407166,337.008728 
	C824.947021,322.304749 829.015076,304.695160 830.652283,286.454071 
	C832.288513,268.222687 829.687866,250.564453 822.287170,233.814499 
	C809.505371,204.885803 788.104248,185.012146 757.862366,175.645065 
	C738.109863,169.526917 717.599915,169.147659 697.481262,173.641983 
	C682.406433,177.009552 668.242737,183.652969 656.769592,194.200562 
	C642.422607,207.389999 628.942810,221.523117 615.097778,235.258087 
	C581.982544,268.110046 548.801758,300.896271 515.775818,333.837799 
	C451.120514,398.327881 386.552887,462.905853 321.448181,527.946838 
z"/>
<path fill="#FCFDFE" opacity="1.000000" stroke="none" 
	d="
M321.698578,527.697144 
	C386.552887,462.905853 451.120514,398.327881 515.775818,333.837799 
	C548.801758,300.896271 581.982544,268.110046 615.097778,235.258087 
	C628.942810,221.523117 642.422607,207.389999 656.769592,194.200562 
	C668.242737,183.652969 682.406433,177.009552 697.481262,173.641983 
	C717.599915,169.147659 738.109863,169.526917 757.862366,175.645065 
	C788.104248,185.012146 809.505371,204.885803 822.287170,233.814499 
	C829.687866,250.564453 832.288513,268.222687 830.652283,286.454071 
	C829.015076,304.695160 824.947021,322.304749 813.407166,337.008728 
	C806.041138,346.394501 797.806580,355.165009 789.405518,363.661713 
	C717.733521,436.149261 646.046265,508.622437 574.131348,580.868774 
	C530.409973,624.791748 486.296906,668.325073 442.322357,711.995667 
	C423.288605,730.897827 404.155914,749.700378 385.077972,768.558044 
	C380.039246,773.538635 374.774109,778.323120 370.083679,783.614929 
	C364.071228,790.398132 355.618958,790.675232 347.852081,792.637939 
	C328.697144,797.478516 309.477539,802.069519 290.243591,806.589172 
	C271.336945,811.031921 252.378021,815.252014 233.446747,819.590271 
	C218.384216,823.041931 203.310913,826.449158 188.275787,830.016907 
	C176.154190,832.893311 168.467422,825.417725 171.385208,813.375061 
	C179.619888,779.387634 187.944809,745.421936 196.097427,711.414856 
	C201.649155,688.257019 206.841721,665.012268 212.528458,641.888367 
	C213.429352,638.225159 215.416702,634.324463 218.047150,631.667542 
	C252.393738,596.974792 286.946960,562.486511 321.698578,527.697144 
M208.286316,775.531250 
	C210.234299,773.972839 212.200302,772.436340 214.126740,770.851807 
	C218.948761,766.885437 225.209763,767.022827 229.863983,771.222900 
	C235.083649,775.933289 235.701843,780.305115 231.580978,786.185974 
	C229.276199,789.475037 226.519424,792.447510 223.825027,795.735046 
	C224.699234,795.994263 225.045380,796.225830 225.320740,796.160278 
	C244.911087,791.492737 264.496185,786.803345 284.080811,782.111755 
	C304.005463,777.338867 323.912079,772.488464 343.868713,767.853149 
	C347.513153,767.006653 349.198853,765.306274 349.604370,761.567383 
	C350.649689,751.930054 352.052795,742.332153 353.205383,732.705566 
	C353.902618,726.881836 354.399323,721.034058 355.016907,714.890808 
	C349.713562,715.446899 345.019958,715.990173 340.316162,716.422913 
	C324.845428,717.846069 309.389709,719.519531 293.890869,720.516052 
	C284.941956,721.091370 281.044159,716.958130 281.132599,707.950317 
	C281.187836,702.325439 281.797760,696.693481 282.386871,691.088684 
	C283.767029,677.957703 285.090912,664.815002 286.856903,651.733643 
	C287.434235,647.457397 286.418396,646.340698 282.271271,646.884583 
	C268.563812,648.681946 254.849701,650.476807 241.095474,651.843140 
	C236.141113,652.335266 234.369858,654.802795 233.337875,659.213684 
	C226.294891,689.316040 219.034225,719.367371 211.956894,749.461731 
	C209.992233,757.815918 208.409576,766.259888 206.158569,775.122681 
	C206.136444,775.671814 206.114334,776.220947 206.092209,776.770081 
	C206.640060,776.491821 207.187912,776.213623 208.286316,775.531250 
M436.834808,683.334900 
	C526.846252,593.345032 616.857727,503.355133 705.269592,414.964386 
	C666.130127,374.904968 627.631836,335.501892 587.772034,294.705292 
	C580.697144,302.386810 574.304993,309.832428 567.390564,316.756561 
	C494.736725,389.512024 421.917389,462.102325 349.326721,534.920654 
	C321.344757,562.990417 293.825287,591.521362 266.121735,619.868286 
	C265.102020,620.911621 264.364227,622.230591 262.794373,624.380859 
	C272.895630,623.306641 281.606903,622.624390 290.225098,621.324890 
	C293.056427,620.898071 296.252258,619.482056 298.259674,617.489197 
	C373.828461,542.467041 449.256012,467.302704 524.763184,392.218506 
	C538.105042,378.951385 551.657898,365.894501 565.226501,352.858490 
	C569.850342,348.416168 575.945496,348.830200 580.688416,353.476044 
	C586.012634,358.691315 586.366638,363.413177 581.719299,368.690796 
	C579.408020,371.315521 577.016357,373.876190 574.555847,376.361664 
	C540.247681,411.017517 505.979309,445.712891 471.584259,480.282257 
	C433.031982,519.029907 394.361420,557.659851 355.741516,596.340149 
	C343.066589,609.034912 330.381989,621.719971 317.718384,634.425964 
	C314.918518,637.235229 312.667877,639.900085 312.589172,644.588257 
	C312.463684,652.063232 310.802490,659.501892 310.004669,666.978821 
	C309.058319,675.847473 308.338593,684.740295 307.522003,693.607666 
	C308.705658,693.895264 309.181824,694.145386 309.627808,694.099854 
	C325.681854,692.459839 341.732697,690.788757 357.784912,689.130798 
	C361.987732,688.696594 365.277496,687.005188 368.391754,683.851562 
	C389.457123,662.520020 410.769989,641.433044 431.988953,620.253052 
	C483.872559,568.464661 535.685364,516.605164 587.667297,464.915649 
	C602.774658,449.893158 618.338684,435.329071 633.740051,420.603699 
	C636.265198,418.189453 638.794067,416.455963 642.954041,417.654663 
	C651.412048,420.091797 655.386841,431.910004 647.361084,439.894135 
	C562.418213,524.395752 477.843628,609.267578 392.922333,693.791016 
	C384.977264,701.698792 378.096344,709.281006 379.383759,721.341064 
	C379.432556,721.798340 379.029602,722.286682 378.989014,722.773254 
	C378.490784,728.743042 378.020935,734.715210 377.543701,740.686768 
	C377.926117,740.840515 378.308502,740.994263 378.690887,741.148010 
	C397.905334,722.043457 417.119781,702.938904 436.834808,683.334900 
M781.723511,316.835510 
	C784.177734,318.754059 786.573120,320.754486 789.100952,322.570679 
	C792.348450,324.903961 794.829041,324.205231 796.751404,320.608856 
	C802.231323,310.356445 806.732849,299.674164 807.985657,288.092010 
	C810.750916,262.527069 804.003296,239.738327 785.997681,221.012222 
	C764.662292,198.823044 739.020874,188.566925 708.083801,194.980835 
	C696.333191,197.416992 685.498413,202.174683 674.665283,211.368866 
	C680.836304,217.491043 687.739807,222.735275 693.850220,228.781113 
	C709.105957,243.875641 723.917297,259.418091 739.066162,274.622223 
	C753.016357,288.623383 767.173767,302.417938 781.723511,316.835510 
M646.525574,248.981186 
	C661.851379,264.283142 677.184998,279.577301 692.501160,294.888947 
	C713.590820,315.972382 734.672485,337.063843 755.739380,358.170013 
	C757.455383,359.889130 758.885803,361.659363 761.464294,359.176361 
	C766.103271,354.709290 770.923706,350.430817 774.337158,347.296082 
	C734.689331,306.836121 695.951660,267.304871 657.158936,227.717545 
	C651.845459,233.379776 646.902100,238.647614 641.210205,244.713135 
	C642.357239,245.611328 644.192200,247.048203 646.525574,248.981186 
M695.795105,333.705200 
	C671.534241,309.591827 647.273315,285.478424 622.888245,261.241577 
	C617.114746,267.103455 612.238953,272.053894 607.877747,276.481903 
	C647.194214,315.810638 686.439819,355.068512 724.482483,393.123016 
	C729.869080,388.808563 735.643250,384.183716 741.607422,379.406647 
	C725.769470,363.607971 711.031921,348.906952 695.795105,333.705200 
z"/>
<path fill="#2D6EC5" opacity="1.000000" stroke="none" 
	d="
M436.584534,683.584595 
	C417.119781,702.938904 397.905334,722.043457 378.690887,741.148010 
	C378.308502,740.994263 377.926117,740.840515 377.543701,740.686768 
	C378.020935,734.715210 378.490784,728.743042 378.989014,722.773254 
	C379.029602,722.286682 379.432556,721.798340 379.383759,721.341064 
	C378.096344,709.281006 384.977264,701.698792 392.922333,693.791016 
	C477.843628,609.267578 562.418213,524.395752 647.361084,439.894135 
	C655.386841,431.910004 651.412048,420.091797 642.954041,417.654663 
	C638.794067,416.455963 636.265198,418.189453 633.740051,420.603699 
	C618.338684,435.329071 602.774658,449.893158 587.667297,464.915649 
	C535.685364,516.605164 483.872559,568.464661 431.988953,620.253052 
	C410.769989,641.433044 389.457123,662.520020 368.391754,683.851562 
	C365.277496,687.005188 361.987732,688.696594 357.784912,689.130798 
	C341.732697,690.788757 325.681854,692.459839 309.627808,694.099854 
	C309.181824,694.145386 308.705658,693.895264 307.522003,693.607666 
	C308.338593,684.740295 309.058319,675.847473 310.004669,666.978821 
	C310.802490,659.501892 312.463684,652.063232 312.589172,644.588257 
	C312.667877,639.900085 314.918518,637.235229 317.718384,634.425964 
	C330.381989,621.719971 343.066589,609.034912 355.741516,596.340149 
	C394.361420,557.659851 433.031982,519.029907 471.584259,480.282257 
	C505.979309,445.712891 540.247681,411.017517 574.555847,376.361664 
	C577.016357,373.876190 579.408020,371.315521 581.719299,368.690796 
	C586.366638,363.413177 586.012634,358.691315 580.688416,353.476044 
	C575.945496,348.830200 569.850342,348.416168 565.226501,352.858490 
	C551.657898,365.894501 538.105042,378.951385 524.763184,392.218506 
	C449.256012,467.302704 373.828461,542.467041 298.259674,617.489197 
	C296.252258,619.482056 293.056427,620.898071 290.225098,621.324890 
	C281.606903,622.624390 272.895630,623.306641 262.794373,624.380859 
	C264.364227,622.230591 265.102020,620.911621 266.121735,619.868286 
	C293.825287,591.521362 321.344757,562.990417 349.326721,534.920654 
	C421.917389,462.102325 494.736725,389.512024 567.390564,316.756561 
	C574.304993,309.832428 580.697144,302.386810 587.772034,294.705292 
	C627.631836,335.501892 666.130127,374.904968 705.269592,414.964386 
	C616.857727,503.355133 526.846252,593.345032 436.584534,683.584595 
z"/>
<path fill="#2D6EC5" opacity="1.000000" stroke="none" 
	d="
M206.651657,774.662659 
	C208.409576,766.259888 209.992233,757.815918 211.956894,749.461731 
	C219.034225,719.367371 226.294891,689.316040 233.337875,659.213684 
	C234.369858,654.802795 236.141113,652.335266 241.095474,651.843140 
	C254.849701,650.476807 268.563812,648.681946 282.271271,646.884583 
	C286.418396,646.340698 287.434235,647.457397 286.856903,651.733643 
	C285.090912,664.815002 283.767029,677.957703 282.386871,691.088684 
	C281.797760,696.693481 281.187836,702.325439 281.132599,707.950317 
	C281.044159,716.958130 284.941956,721.091370 293.890869,720.516052 
	C309.389709,719.519531 324.845428,717.846069 340.316162,716.422913 
	C345.019958,715.990173 349.713562,715.446899 355.016907,714.890808 
	C354.399323,721.034058 353.902618,726.881836 353.205383,732.705566 
	C352.052795,742.332153 350.649689,751.930054 349.604370,761.567383 
	C349.198853,765.306274 347.513153,767.006653 343.868713,767.853149 
	C323.912079,772.488464 304.005463,777.338867 284.080811,782.111755 
	C264.496185,786.803345 244.911087,791.492737 225.320740,796.160278 
	C225.045380,796.225830 224.699234,795.994263 223.825027,795.735046 
	C226.519424,792.447510 229.276199,789.475037 231.580978,786.185974 
	C235.701843,780.305115 235.083649,775.933289 229.863983,771.222900 
	C225.209763,767.022827 218.948761,766.885437 214.126740,770.851807 
	C212.200302,772.436340 210.234299,773.972839 207.741699,775.413696 
	C207.015259,775.085022 206.833466,774.873840 206.651657,774.662659 
z"/>
<path fill="#2D6EC5" opacity="1.000000" stroke="none" 
	d="
M781.481689,316.569519 
	C767.173767,302.417938 753.016357,288.623383 739.066162,274.622223 
	C723.917297,259.418091 709.105957,243.875641 693.850220,228.781113 
	C687.739807,222.735275 680.836304,217.491043 674.665283,211.368866 
	C685.498413,202.174683 696.333191,197.416992 708.083801,194.980835 
	C739.020874,188.566925 764.662292,198.823044 785.997681,221.012222 
	C804.003296,239.738327 810.750916,262.527069 807.985657,288.092010 
	C806.732849,299.674164 802.231323,310.356445 796.751404,320.608856 
	C794.829041,324.205231 792.348450,324.903961 789.100952,322.570679 
	C786.573120,320.754486 784.177734,318.754059 781.481689,316.569519 
z"/>
<path fill="#3170C6" opacity="1.000000" stroke="none" 
	d="
M646.276367,248.733139 
	C644.192200,247.048203 642.357239,245.611328 641.210205,244.713135 
	C646.902100,238.647614 651.845459,233.379776 657.158936,227.717545 
	C695.951660,267.304871 734.689331,306.836121 774.337158,347.296082 
	C770.923706,350.430817 766.103271,354.709290 761.464294,359.176361 
	C758.885803,361.659363 757.455383,359.889130 755.739380,358.170013 
	C734.672485,337.063843 713.590820,315.972382 692.501160,294.888947 
	C677.184998,279.577301 661.851379,264.283142 646.276367,248.733139 
z"/>
<path fill="#3271C6" opacity="1.000000" stroke="none" 
	d="
M696.044678,333.955566 
	C711.031921,348.906952 725.769470,363.607971 741.607422,379.406647 
	C735.643250,384.183716 729.869080,388.808563 724.482483,393.123016 
	C686.439819,355.068512 647.194214,315.810638 607.877747,276.481903 
	C612.238953,272.053894 617.114746,267.103455 622.888245,261.241577 
	C647.273315,285.478424 671.534241,309.591827 696.044678,333.955566 
z"/>
<path fill="#2D6EC5" opacity="1.000000" stroke="none" 
	d="
M207.466415,775.615845 
	C207.187912,776.213623 206.640060,776.491821 206.092209,776.770081 
	C206.114334,776.220947 206.136444,775.671814 206.405121,774.892700 
	C206.833466,774.873840 207.015259,775.085022 207.466415,775.615845 
z"/>
</svg>